<mxfile host="Electron" agent="Mozilla/5.0 (X11; Linux x86_64) AppleWebKit/537.36 (KHTML, like Gecko) draw.io/26.2.15 Chrome/134.0.6998.205 Electron/35.2.1 Safari/537.36" version="26.2.15">
  <diagram id="prtHgNgQTEPvFCAcTncT" name="Page-1">
    <mxGraphModel dx="2922" dy="521" grid="1" gridSize="12" guides="1" tooltips="1" connect="1" arrows="1" fold="1" page="1" pageScale="1" pageWidth="1920" pageHeight="1200" math="0" shadow="0">
      <root>
        <mxCell id="0" />
        <mxCell id="1" parent="0" />
        <mxCell id="dNxyNK7c78bLwvsdeMH5-19" value="Pool" style="swimlane;html=1;childLayout=stackLayout;resizeParent=1;resizeParentMax=0;horizontal=0;startSize=20;horizontalStack=0;" parent="1" vertex="1">
          <mxGeometry x="-550" y="59" width="3520" height="1256.25" as="geometry" />
        </mxCell>
        <mxCell id="09VrfscucBev9E92s10k-10" value="" style="edgeStyle=none;curved=1;rounded=0;orthogonalLoop=1;jettySize=auto;html=1;fontSize=12;startSize=8;endSize=8;" parent="dNxyNK7c78bLwvsdeMH5-19" source="09VrfscucBev9E92s10k-7" target="09VrfscucBev9E92s10k-9" edge="1">
          <mxGeometry relative="1" as="geometry" />
        </mxCell>
        <mxCell id="QDIWvdAyVyvwIRi1RJry-98" value="" style="edgeStyle=orthogonalEdgeStyle;rounded=0;orthogonalLoop=1;jettySize=auto;html=1;" parent="dNxyNK7c78bLwvsdeMH5-19" source="QDIWvdAyVyvwIRi1RJry-93" target="QDIWvdAyVyvwIRi1RJry-97" edge="1">
          <mxGeometry relative="1" as="geometry" />
        </mxCell>
        <mxCell id="QDIWvdAyVyvwIRi1RJry-99" value="Aceptado" style="edgeLabel;html=1;align=center;verticalAlign=middle;resizable=0;points=[];" parent="QDIWvdAyVyvwIRi1RJry-98" connectable="0" vertex="1">
          <mxGeometry x="-0.0195" y="-2" relative="1" as="geometry">
            <mxPoint as="offset" />
          </mxGeometry>
        </mxCell>
        <mxCell id="dNxyNK7c78bLwvsdeMH5-20" value="Lane 1" style="swimlane;html=1;startSize=20;horizontal=0;" parent="dNxyNK7c78bLwvsdeMH5-19" vertex="1">
          <mxGeometry x="20" width="3500" height="635" as="geometry" />
        </mxCell>
        <mxCell id="dNxyNK7c78bLwvsdeMH5-25" value="" style="edgeStyle=orthogonalEdgeStyle;rounded=0;orthogonalLoop=1;jettySize=auto;html=1;" parent="dNxyNK7c78bLwvsdeMH5-20" source="dNxyNK7c78bLwvsdeMH5-23" target="dNxyNK7c78bLwvsdeMH5-24" edge="1">
          <mxGeometry relative="1" as="geometry" />
        </mxCell>
        <mxCell id="dNxyNK7c78bLwvsdeMH5-23" value="Inicio" style="ellipse;whiteSpace=wrap;html=1;fillColor=#cdeb8b;strokeColor=#36393d;" parent="dNxyNK7c78bLwvsdeMH5-20" vertex="1">
          <mxGeometry x="40" y="35" width="40" height="40" as="geometry" />
        </mxCell>
        <mxCell id="QDIWvdAyVyvwIRi1RJry-90" value="" style="edgeStyle=orthogonalEdgeStyle;rounded=0;orthogonalLoop=1;jettySize=auto;html=1;" parent="dNxyNK7c78bLwvsdeMH5-20" source="dNxyNK7c78bLwvsdeMH5-24" target="QDIWvdAyVyvwIRi1RJry-89" edge="1">
          <mxGeometry relative="1" as="geometry" />
        </mxCell>
        <mxCell id="dNxyNK7c78bLwvsdeMH5-24" value="Gestion de recursos humanos" style="rounded=0;whiteSpace=wrap;html=1;fontFamily=Helvetica;fontSize=12;fontColor=#000000;align=center;" parent="dNxyNK7c78bLwvsdeMH5-20" vertex="1">
          <mxGeometry x="170" y="25" width="80" height="60" as="geometry" />
        </mxCell>
        <mxCell id="dNxyNK7c78bLwvsdeMH5-26" value="¿Que actividad va a realizar con recursos humanos?" style="rounded=0;whiteSpace=wrap;html=1;fontFamily=Helvetica;fontSize=12;fontColor=#000000;align=center;" parent="dNxyNK7c78bLwvsdeMH5-20" vertex="1">
          <mxGeometry x="370" y="20" width="120" height="70" as="geometry" />
        </mxCell>
        <mxCell id="dNxyNK7c78bLwvsdeMH5-27" value="" style="edgeStyle=orthogonalEdgeStyle;rounded=0;orthogonalLoop=1;jettySize=auto;html=1;dashed=1;endArrow=none;endFill=0;" parent="dNxyNK7c78bLwvsdeMH5-20" source="dNxyNK7c78bLwvsdeMH5-24" target="dNxyNK7c78bLwvsdeMH5-26" edge="1">
          <mxGeometry relative="1" as="geometry" />
        </mxCell>
        <mxCell id="QDIWvdAyVyvwIRi1RJry-2" value="" style="edgeStyle=orthogonalEdgeStyle;rounded=0;orthogonalLoop=1;jettySize=auto;html=1;" parent="dNxyNK7c78bLwvsdeMH5-20" source="09VrfscucBev9E92s10k-1" target="QDIWvdAyVyvwIRi1RJry-1" edge="1">
          <mxGeometry relative="1" as="geometry" />
        </mxCell>
        <mxCell id="QDIWvdAyVyvwIRi1RJry-82" value="" style="edgeStyle=orthogonalEdgeStyle;rounded=0;orthogonalLoop=1;jettySize=auto;html=1;" parent="dNxyNK7c78bLwvsdeMH5-20" source="09VrfscucBev9E92s10k-1" target="09VrfscucBev9E92s10k-5" edge="1">
          <mxGeometry relative="1" as="geometry" />
        </mxCell>
        <mxCell id="g19Ql4iww1l-Nfda9e8D-1" style="edgeStyle=orthogonalEdgeStyle;rounded=0;orthogonalLoop=1;jettySize=auto;html=1;" parent="dNxyNK7c78bLwvsdeMH5-20" edge="1">
          <mxGeometry relative="1" as="geometry">
            <mxPoint x="2541" y="175" as="targetPoint" />
            <mxPoint x="1130" y="75.00000000000011" as="sourcePoint" />
          </mxGeometry>
        </mxCell>
        <mxCell id="09VrfscucBev9E92s10k-1" value="Agendacion de cita" style="whiteSpace=wrap;html=1;fontColor=#000000;rounded=0;" parent="dNxyNK7c78bLwvsdeMH5-20" vertex="1">
          <mxGeometry x="890" y="25" width="120" height="60" as="geometry" />
        </mxCell>
        <mxCell id="09VrfscucBev9E92s10k-2" value="" style="edgeStyle=none;curved=1;rounded=0;orthogonalLoop=1;jettySize=auto;html=1;fontSize=12;startSize=8;endSize=8;" parent="dNxyNK7c78bLwvsdeMH5-20" source="dNxyNK7c78bLwvsdeMH5-26" target="09VrfscucBev9E92s10k-1" edge="1">
          <mxGeometry relative="1" as="geometry" />
        </mxCell>
        <mxCell id="QDIWvdAyVyvwIRi1RJry-1" value="Paz y salvo&amp;nbsp;" style="whiteSpace=wrap;html=1;fontColor=#000000;rounded=0;" parent="dNxyNK7c78bLwvsdeMH5-20" vertex="1">
          <mxGeometry x="1565" y="25" width="120" height="60" as="geometry" />
        </mxCell>
        <mxCell id="09VrfscucBev9E92s10k-5" value="Permiso" style="whiteSpace=wrap;html=1;fontColor=#000000;rounded=0;" parent="dNxyNK7c78bLwvsdeMH5-20" vertex="1">
          <mxGeometry x="890" y="140" width="120" height="60" as="geometry" />
        </mxCell>
        <mxCell id="09VrfscucBev9E92s10k-7" value="Se realiza una carta" style="whiteSpace=wrap;html=1;fontColor=#000000;rounded=0;" parent="dNxyNK7c78bLwvsdeMH5-20" vertex="1">
          <mxGeometry x="890" y="250" width="120" height="60" as="geometry" />
        </mxCell>
        <mxCell id="09VrfscucBev9E92s10k-8" value="" style="edgeStyle=none;curved=1;rounded=0;orthogonalLoop=1;jettySize=auto;html=1;fontSize=12;startSize=8;endSize=8;" parent="dNxyNK7c78bLwvsdeMH5-20" source="09VrfscucBev9E92s10k-5" target="09VrfscucBev9E92s10k-7" edge="1">
          <mxGeometry relative="1" as="geometry" />
        </mxCell>
        <mxCell id="QDIWvdAyVyvwIRi1RJry-92" value="" style="edgeStyle=orthogonalEdgeStyle;rounded=0;orthogonalLoop=1;jettySize=auto;html=1;entryX=0.5;entryY=0;entryDx=0;entryDy=0;" parent="dNxyNK7c78bLwvsdeMH5-20" source="QDIWvdAyVyvwIRi1RJry-89" target="QDIWvdAyVyvwIRi1RJry-93" edge="1">
          <mxGeometry relative="1" as="geometry">
            <mxPoint x="210" y="280" as="targetPoint" />
          </mxGeometry>
        </mxCell>
        <mxCell id="QDIWvdAyVyvwIRi1RJry-89" value="solicitud de aspirantes para ingresar a la empresa" style="whiteSpace=wrap;html=1;fontColor=#000000;rounded=0;" parent="dNxyNK7c78bLwvsdeMH5-20" vertex="1">
          <mxGeometry x="150" y="140" width="120" height="60" as="geometry" />
        </mxCell>
        <mxCell id="QDIWvdAyVyvwIRi1RJry-95" value="" style="edgeStyle=orthogonalEdgeStyle;rounded=0;orthogonalLoop=1;jettySize=auto;html=1;" parent="dNxyNK7c78bLwvsdeMH5-20" source="QDIWvdAyVyvwIRi1RJry-93" target="QDIWvdAyVyvwIRi1RJry-94" edge="1">
          <mxGeometry relative="1" as="geometry" />
        </mxCell>
        <mxCell id="QDIWvdAyVyvwIRi1RJry-96" value="denegado" style="edgeLabel;html=1;align=center;verticalAlign=middle;resizable=0;points=[];" parent="QDIWvdAyVyvwIRi1RJry-95" connectable="0" vertex="1">
          <mxGeometry x="-0.1024" y="-1" relative="1" as="geometry">
            <mxPoint as="offset" />
          </mxGeometry>
        </mxCell>
        <mxCell id="QDIWvdAyVyvwIRi1RJry-93" value="Acepta o denega la solicitud" style="rhombus;whiteSpace=wrap;html=1;" parent="dNxyNK7c78bLwvsdeMH5-20" vertex="1">
          <mxGeometry x="145" y="280" width="130" height="90" as="geometry" />
        </mxCell>
        <mxCell id="QDIWvdAyVyvwIRi1RJry-115" value="" style="edgeStyle=orthogonalEdgeStyle;rounded=0;orthogonalLoop=1;jettySize=auto;html=1;" parent="dNxyNK7c78bLwvsdeMH5-20" source="QDIWvdAyVyvwIRi1RJry-94" target="QDIWvdAyVyvwIRi1RJry-114" edge="1">
          <mxGeometry relative="1" as="geometry" />
        </mxCell>
        <mxCell id="QDIWvdAyVyvwIRi1RJry-94" value="Se envía una notificación de rechazo para entrevista" style="whiteSpace=wrap;html=1;" parent="dNxyNK7c78bLwvsdeMH5-20" vertex="1">
          <mxGeometry x="360" y="295" width="120" height="60" as="geometry" />
        </mxCell>
        <mxCell id="QDIWvdAyVyvwIRi1RJry-114" value="Fin" style="ellipse;whiteSpace=wrap;html=1;" parent="dNxyNK7c78bLwvsdeMH5-20" vertex="1">
          <mxGeometry x="580" y="285" width="80" height="80" as="geometry" />
        </mxCell>
        <mxCell id="g19Ql4iww1l-Nfda9e8D-4" value="" style="edgeStyle=orthogonalEdgeStyle;rounded=0;orthogonalLoop=1;jettySize=auto;html=1;" parent="dNxyNK7c78bLwvsdeMH5-20" source="g19Ql4iww1l-Nfda9e8D-2" target="g19Ql4iww1l-Nfda9e8D-3" edge="1">
          <mxGeometry relative="1" as="geometry" />
        </mxCell>
        <mxCell id="g19Ql4iww1l-Nfda9e8D-2" value="Horas extra&amp;nbsp;&lt;div&gt;&lt;br&gt;&lt;/div&gt;" style="whiteSpace=wrap;html=1;fontColor=#000000;rounded=0;" parent="dNxyNK7c78bLwvsdeMH5-20" vertex="1">
          <mxGeometry x="2480" y="170" width="120" height="60" as="geometry" />
        </mxCell>
        <mxCell id="g19Ql4iww1l-Nfda9e8D-6" value="" style="edgeStyle=orthogonalEdgeStyle;rounded=0;orthogonalLoop=1;jettySize=auto;html=1;" parent="dNxyNK7c78bLwvsdeMH5-20" source="g19Ql4iww1l-Nfda9e8D-3" target="g19Ql4iww1l-Nfda9e8D-5" edge="1">
          <mxGeometry relative="1" as="geometry" />
        </mxCell>
        <mxCell id="g19Ql4iww1l-Nfda9e8D-3" value="Se realiza una peticion, acuerdo o una carta a recursos humanos&lt;div&gt;&lt;br&gt;&lt;/div&gt;" style="whiteSpace=wrap;html=1;fontColor=#000000;rounded=0;" parent="dNxyNK7c78bLwvsdeMH5-20" vertex="1">
          <mxGeometry x="2480" y="260" width="120" height="60" as="geometry" />
        </mxCell>
        <mxCell id="g19Ql4iww1l-Nfda9e8D-5" value="Se procesa la peticion&lt;div&gt;&lt;br&gt;&lt;/div&gt;" style="whiteSpace=wrap;html=1;fontColor=#000000;rounded=0;" parent="dNxyNK7c78bLwvsdeMH5-20" vertex="1">
          <mxGeometry x="2480" y="365" width="120" height="60" as="geometry" />
        </mxCell>
        <mxCell id="g19Ql4iww1l-Nfda9e8D-8" value="" style="edgeStyle=orthogonalEdgeStyle;rounded=0;orthogonalLoop=1;jettySize=auto;html=1;" parent="dNxyNK7c78bLwvsdeMH5-20" source="g19Ql4iww1l-Nfda9e8D-5" target="g19Ql4iww1l-Nfda9e8D-7" edge="1">
          <mxGeometry relative="1" as="geometry" />
        </mxCell>
        <mxCell id="g19Ql4iww1l-Nfda9e8D-10" value="" style="edgeStyle=orthogonalEdgeStyle;rounded=0;orthogonalLoop=1;jettySize=auto;html=1;" parent="dNxyNK7c78bLwvsdeMH5-20" source="g19Ql4iww1l-Nfda9e8D-7" target="g19Ql4iww1l-Nfda9e8D-9" edge="1">
          <mxGeometry relative="1" as="geometry" />
        </mxCell>
        <mxCell id="g19Ql4iww1l-Nfda9e8D-7" value="La peticion debe cumplir una serie de requisitos&amp;nbsp;&lt;div&gt;&lt;br&gt;&lt;/div&gt;" style="whiteSpace=wrap;html=1;fontColor=#000000;rounded=0;" parent="dNxyNK7c78bLwvsdeMH5-20" vertex="1">
          <mxGeometry x="2480" y="480" width="120" height="60" as="geometry" />
        </mxCell>
        <mxCell id="g19Ql4iww1l-Nfda9e8D-12" value="" style="edgeStyle=orthogonalEdgeStyle;rounded=0;orthogonalLoop=1;jettySize=auto;html=1;" parent="dNxyNK7c78bLwvsdeMH5-20" source="g19Ql4iww1l-Nfda9e8D-9" target="g19Ql4iww1l-Nfda9e8D-11" edge="1">
          <mxGeometry relative="1" as="geometry" />
        </mxCell>
        <mxCell id="g19Ql4iww1l-Nfda9e8D-13" value="Si no" style="edgeLabel;html=1;align=center;verticalAlign=middle;resizable=0;points=[];" parent="g19Ql4iww1l-Nfda9e8D-12" connectable="0" vertex="1">
          <mxGeometry x="-0.0043" relative="1" as="geometry">
            <mxPoint as="offset" />
          </mxGeometry>
        </mxCell>
        <mxCell id="g19Ql4iww1l-Nfda9e8D-19" value="" style="edgeStyle=orthogonalEdgeStyle;rounded=0;orthogonalLoop=1;jettySize=auto;html=1;" parent="dNxyNK7c78bLwvsdeMH5-20" source="g19Ql4iww1l-Nfda9e8D-9" target="g19Ql4iww1l-Nfda9e8D-18" edge="1">
          <mxGeometry relative="1" as="geometry" />
        </mxCell>
        <mxCell id="g19Ql4iww1l-Nfda9e8D-9" value="Aceptacion de peticion&lt;div&gt;&lt;br&gt;&lt;/div&gt;" style="rhombus;whiteSpace=wrap;html=1;fontColor=#000000;rounded=0;" parent="dNxyNK7c78bLwvsdeMH5-20" vertex="1">
          <mxGeometry x="2670" y="555" width="80" height="80" as="geometry" />
        </mxCell>
        <mxCell id="g19Ql4iww1l-Nfda9e8D-11" value="Se debe realizar la peticion otra vez, realizando las horas en otro horario o jornadas" style="whiteSpace=wrap;html=1;fontColor=#000000;rounded=0;" parent="dNxyNK7c78bLwvsdeMH5-20" vertex="1">
          <mxGeometry x="2480" y="565" width="120" height="65" as="geometry" />
        </mxCell>
        <mxCell id="g19Ql4iww1l-Nfda9e8D-17" style="edgeStyle=orthogonalEdgeStyle;rounded=0;orthogonalLoop=1;jettySize=auto;html=1;entryX=0;entryY=0.5;entryDx=0;entryDy=0;exitX=0.5;exitY=0;exitDx=0;exitDy=0;" parent="dNxyNK7c78bLwvsdeMH5-20" source="g19Ql4iww1l-Nfda9e8D-14" target="g19Ql4iww1l-Nfda9e8D-2" edge="1">
          <mxGeometry relative="1" as="geometry" />
        </mxCell>
        <mxCell id="g19Ql4iww1l-Nfda9e8D-14" value="Se vuelve a realizar el proceso otra vez&lt;div&gt;&lt;br&gt;&lt;/div&gt;" style="whiteSpace=wrap;html=1;fontColor=#000000;rounded=0;" parent="dNxyNK7c78bLwvsdeMH5-20" vertex="1">
          <mxGeometry x="2270" y="365" width="120" height="60" as="geometry" />
        </mxCell>
        <mxCell id="g19Ql4iww1l-Nfda9e8D-15" value="" style="edgeStyle=orthogonalEdgeStyle;rounded=0;orthogonalLoop=1;jettySize=auto;html=1;" parent="dNxyNK7c78bLwvsdeMH5-20" source="g19Ql4iww1l-Nfda9e8D-11" target="g19Ql4iww1l-Nfda9e8D-14" edge="1">
          <mxGeometry relative="1" as="geometry" />
        </mxCell>
        <mxCell id="g19Ql4iww1l-Nfda9e8D-18" value="Se notifica y se dan los horarios" style="whiteSpace=wrap;html=1;fontColor=#000000;rounded=0;" parent="dNxyNK7c78bLwvsdeMH5-20" vertex="1">
          <mxGeometry x="2810" y="565" width="120" height="60" as="geometry" />
        </mxCell>
        <mxCell id="dNxyNK7c78bLwvsdeMH5-21" value="Lane 2" style="swimlane;html=1;startSize=20;horizontal=0;" parent="dNxyNK7c78bLwvsdeMH5-19" vertex="1">
          <mxGeometry x="20" y="635" width="3500" height="621.25" as="geometry" />
        </mxCell>
        <mxCell id="09VrfscucBev9E92s10k-9" value="Se pasa a funcionario de recursos humanos" style="whiteSpace=wrap;html=1;fontColor=#000000;rounded=0;" parent="dNxyNK7c78bLwvsdeMH5-21" vertex="1">
          <mxGeometry x="890" y="-10" width="120" height="60" as="geometry" />
        </mxCell>
        <mxCell id="QDIWvdAyVyvwIRi1RJry-97" value="Se agenda cita para el empleado a entrevistar" style="whiteSpace=wrap;html=1;" parent="dNxyNK7c78bLwvsdeMH5-21" vertex="1">
          <mxGeometry x="150" y="95" width="120" height="60" as="geometry" />
        </mxCell>
        <mxCell id="dNxyNK7c78bLwvsdeMH5-22" value="&amp;gt;" style="swimlane;html=1;startSize=20;horizontal=0;" parent="1" vertex="1">
          <mxGeometry x="-564" y="730" width="3520" height="381.25" as="geometry" />
        </mxCell>
        <mxCell id="09VrfscucBev9E92s10k-25" value="" style="edgeStyle=none;curved=1;rounded=0;orthogonalLoop=1;jettySize=auto;html=1;fontSize=12;startSize=8;endSize=8;entryX=0.5;entryY=0;entryDx=0;entryDy=0;" parent="dNxyNK7c78bLwvsdeMH5-22" source="09VrfscucBev9E92s10k-13" target="09VrfscucBev9E92s10k-56" edge="1">
          <mxGeometry relative="1" as="geometry">
            <mxPoint x="930" y="-40" as="targetPoint" />
          </mxGeometry>
        </mxCell>
        <mxCell id="09VrfscucBev9E92s10k-48" value="Si&lt;br&gt;" style="edgeLabel;html=1;align=center;verticalAlign=middle;resizable=0;points=[];;fontSize=12;" parent="09VrfscucBev9E92s10k-25" connectable="0" vertex="1">
          <mxGeometry x="-0.25" y="1" relative="1" as="geometry">
            <mxPoint as="offset" />
          </mxGeometry>
        </mxCell>
        <mxCell id="QDIWvdAyVyvwIRi1RJry-41" value="" style="edgeStyle=none;curved=1;rounded=0;orthogonalLoop=1;jettySize=auto;html=1;fontSize=12;startSize=8;endSize=8;entryX=0.5;entryY=0;entryDx=0;entryDy=0;" parent="dNxyNK7c78bLwvsdeMH5-22" source="QDIWvdAyVyvwIRi1RJry-37" target="QDIWvdAyVyvwIRi1RJry-53" edge="1">
          <mxGeometry relative="1" as="geometry">
            <mxPoint x="2200" y="-10" as="targetPoint" />
          </mxGeometry>
        </mxCell>
        <mxCell id="QDIWvdAyVyvwIRi1RJry-42" value="Si&lt;br&gt;" style="edgeLabel;html=1;align=center;verticalAlign=middle;resizable=0;points=[];;fontSize=12;" parent="QDIWvdAyVyvwIRi1RJry-41" connectable="0" vertex="1">
          <mxGeometry x="-0.25" y="1" relative="1" as="geometry">
            <mxPoint as="offset" />
          </mxGeometry>
        </mxCell>
        <mxCell id="QDIWvdAyVyvwIRi1RJry-32" value="Se realiza una carta" style="whiteSpace=wrap;html=1;fontColor=#000000;rounded=0;" parent="dNxyNK7c78bLwvsdeMH5-22" vertex="1">
          <mxGeometry x="2060" y="-370" width="120" height="60" as="geometry" />
        </mxCell>
        <mxCell id="QDIWvdAyVyvwIRi1RJry-34" value="Se pasa a funcionario de recursos humanos" style="whiteSpace=wrap;html=1;fontColor=#000000;rounded=0;" parent="dNxyNK7c78bLwvsdeMH5-22" vertex="1">
          <mxGeometry x="2060" y="-270" width="120" height="60" as="geometry" />
        </mxCell>
        <mxCell id="QDIWvdAyVyvwIRi1RJry-31" value="" style="edgeStyle=none;curved=1;rounded=0;orthogonalLoop=1;jettySize=auto;html=1;fontSize=12;startSize=8;endSize=8;" parent="dNxyNK7c78bLwvsdeMH5-22" source="QDIWvdAyVyvwIRi1RJry-32" target="QDIWvdAyVyvwIRi1RJry-34" edge="1">
          <mxGeometry relative="1" as="geometry" />
        </mxCell>
        <mxCell id="09VrfscucBev9E92s10k-13" value="Confirmacion de datos" style="rhombus;whiteSpace=wrap;html=1;fontColor=#000000;rounded=0;" parent="dNxyNK7c78bLwvsdeMH5-22" vertex="1">
          <mxGeometry x="810" y="-30" width="80" height="80" as="geometry" />
        </mxCell>
        <mxCell id="QDIWvdAyVyvwIRi1RJry-37" value="Confirmacion de datos" style="rhombus;whiteSpace=wrap;html=1;fontColor=#000000;rounded=0;" parent="dNxyNK7c78bLwvsdeMH5-22" vertex="1">
          <mxGeometry x="2080" y="-30" width="80" height="80" as="geometry" />
        </mxCell>
        <mxCell id="QDIWvdAyVyvwIRi1RJry-36" value="Se debe realizar otra vez todo el proceso" style="whiteSpace=wrap;html=1;fontColor=#000000;rounded=0;" parent="dNxyNK7c78bLwvsdeMH5-22" vertex="1">
          <mxGeometry x="1900" y="-20" width="120" height="60" as="geometry" />
        </mxCell>
        <mxCell id="QDIWvdAyVyvwIRi1RJry-38" value="" style="edgeStyle=none;curved=1;rounded=0;orthogonalLoop=1;jettySize=auto;html=1;fontSize=12;startSize=8;endSize=8;" parent="dNxyNK7c78bLwvsdeMH5-22" source="QDIWvdAyVyvwIRi1RJry-37" target="QDIWvdAyVyvwIRi1RJry-36" edge="1">
          <mxGeometry relative="1" as="geometry" />
        </mxCell>
        <mxCell id="QDIWvdAyVyvwIRi1RJry-39" value="No" style="edgeLabel;html=1;align=center;verticalAlign=middle;resizable=0;points=[];;fontSize=12;" parent="QDIWvdAyVyvwIRi1RJry-38" connectable="0" vertex="1">
          <mxGeometry x="-0.2" y="-1" relative="1" as="geometry">
            <mxPoint as="offset" />
          </mxGeometry>
        </mxCell>
        <mxCell id="QDIWvdAyVyvwIRi1RJry-61" value="" style="edgeStyle=orthogonalEdgeStyle;rounded=0;orthogonalLoop=1;jettySize=auto;html=1;" parent="dNxyNK7c78bLwvsdeMH5-22" source="QDIWvdAyVyvwIRi1RJry-35" target="QDIWvdAyVyvwIRi1RJry-37" edge="1">
          <mxGeometry relative="1" as="geometry" />
        </mxCell>
        <mxCell id="QDIWvdAyVyvwIRi1RJry-35" value="Verificación de documentos solicitados o entregados" style="whiteSpace=wrap;html=1;fontColor=#000000;rounded=0;" parent="dNxyNK7c78bLwvsdeMH5-22" vertex="1">
          <mxGeometry x="2060" y="-150" width="120" height="60" as="geometry" />
        </mxCell>
        <mxCell id="09VrfscucBev9E92s10k-15" value="Se debe realizar otra vez todo el proceso" style="whiteSpace=wrap;html=1;fontColor=#000000;rounded=0;" parent="dNxyNK7c78bLwvsdeMH5-22" vertex="1">
          <mxGeometry x="640" y="-20" width="120" height="60" as="geometry" />
        </mxCell>
        <mxCell id="09VrfscucBev9E92s10k-16" value="" style="edgeStyle=none;curved=1;rounded=0;orthogonalLoop=1;jettySize=auto;html=1;fontSize=12;startSize=8;endSize=8;" parent="dNxyNK7c78bLwvsdeMH5-22" source="09VrfscucBev9E92s10k-13" target="09VrfscucBev9E92s10k-15" edge="1">
          <mxGeometry relative="1" as="geometry" />
        </mxCell>
        <mxCell id="09VrfscucBev9E92s10k-17" value="No" style="edgeLabel;html=1;align=center;verticalAlign=middle;resizable=0;points=[];;fontSize=12;" parent="09VrfscucBev9E92s10k-16" connectable="0" vertex="1">
          <mxGeometry x="-0.2" y="-1" relative="1" as="geometry">
            <mxPoint as="offset" />
          </mxGeometry>
        </mxCell>
        <mxCell id="QDIWvdAyVyvwIRi1RJry-33" value="" style="edgeStyle=none;curved=1;rounded=0;orthogonalLoop=1;jettySize=auto;html=1;fontSize=12;startSize=8;endSize=8;" parent="dNxyNK7c78bLwvsdeMH5-22" source="QDIWvdAyVyvwIRi1RJry-34" target="QDIWvdAyVyvwIRi1RJry-35" edge="1">
          <mxGeometry relative="1" as="geometry" />
        </mxCell>
        <mxCell id="09VrfscucBev9E92s10k-43" value="" style="edgeStyle=none;curved=1;rounded=0;orthogonalLoop=1;jettySize=auto;html=1;fontSize=12;startSize=8;endSize=8;" parent="dNxyNK7c78bLwvsdeMH5-22" source="09VrfscucBev9E92s10k-24" target="09VrfscucBev9E92s10k-42" edge="1">
          <mxGeometry relative="1" as="geometry" />
        </mxCell>
        <mxCell id="09VrfscucBev9E92s10k-24" value="Aceptación del permiso" style="whiteSpace=wrap;html=1;fontColor=#000000;rounded=0;" parent="dNxyNK7c78bLwvsdeMH5-22" vertex="1">
          <mxGeometry x="1330" y="125" width="120" height="60" as="geometry" />
        </mxCell>
        <mxCell id="09VrfscucBev9E92s10k-45" value="" style="edgeStyle=none;curved=1;rounded=0;orthogonalLoop=1;jettySize=auto;html=1;fontSize=12;startSize=8;endSize=8;" parent="dNxyNK7c78bLwvsdeMH5-22" source="09VrfscucBev9E92s10k-42" target="09VrfscucBev9E92s10k-44" edge="1">
          <mxGeometry relative="1" as="geometry" />
        </mxCell>
        <mxCell id="09VrfscucBev9E92s10k-42" value="Firma del documento enviado" style="whiteSpace=wrap;html=1;fontColor=#000000;rounded=0;" parent="dNxyNK7c78bLwvsdeMH5-22" vertex="1">
          <mxGeometry x="1500" y="125" width="120" height="60" as="geometry" />
        </mxCell>
        <mxCell id="09VrfscucBev9E92s10k-51" value="" style="edgeStyle=none;curved=1;rounded=0;orthogonalLoop=1;jettySize=auto;html=1;fontSize=12;startSize=8;endSize=8;" parent="dNxyNK7c78bLwvsdeMH5-22" source="09VrfscucBev9E92s10k-44" target="09VrfscucBev9E92s10k-50" edge="1">
          <mxGeometry relative="1" as="geometry" />
        </mxCell>
        <mxCell id="09VrfscucBev9E92s10k-44" value="Se debe notificar y se hace una constancia de cumplimiento del permiso" style="whiteSpace=wrap;html=1;fontColor=#000000;rounded=0;" parent="dNxyNK7c78bLwvsdeMH5-22" vertex="1">
          <mxGeometry x="1650" y="125" width="120" height="60" as="geometry" />
        </mxCell>
        <mxCell id="09VrfscucBev9E92s10k-55" value="" style="edgeStyle=none;curved=0;rounded=0;orthogonalLoop=1;jettySize=auto;html=1;fontSize=12;startSize=8;endSize=8;entryX=0.5;entryY=1;entryDx=0;entryDy=0;" parent="dNxyNK7c78bLwvsdeMH5-22" source="09VrfscucBev9E92s10k-50" target="QDIWvdAyVyvwIRi1RJry-49" edge="1">
          <mxGeometry relative="1" as="geometry">
            <mxPoint x="1950" y="155" as="targetPoint" />
            <Array as="points">
              <mxPoint x="1860" y="260" />
              <mxPoint x="2600" y="260" />
              <mxPoint x="3350" y="260" />
            </Array>
          </mxGeometry>
        </mxCell>
        <mxCell id="09VrfscucBev9E92s10k-50" value="Reenviar el documento firmado al remitente" style="whiteSpace=wrap;html=1;fontColor=#000000;rounded=0;" parent="dNxyNK7c78bLwvsdeMH5-22" vertex="1">
          <mxGeometry x="1800" y="125" width="120" height="60" as="geometry" />
        </mxCell>
        <mxCell id="09VrfscucBev9E92s10k-60" style="edgeStyle=none;curved=1;rounded=0;orthogonalLoop=1;jettySize=auto;html=1;entryX=0;entryY=0.5;entryDx=0;entryDy=0;fontSize=12;startSize=8;endSize=8;" parent="dNxyNK7c78bLwvsdeMH5-22" source="09VrfscucBev9E92s10k-56" target="09VrfscucBev9E92s10k-59" edge="1">
          <mxGeometry relative="1" as="geometry" />
        </mxCell>
        <mxCell id="09VrfscucBev9E92s10k-56" value="Un superior debe revisar el documento y debe aprobarlo" style="rounded=1;whiteSpace=wrap;html=1;" parent="dNxyNK7c78bLwvsdeMH5-22" vertex="1">
          <mxGeometry x="790" y="156.88" width="120" height="60" as="geometry" />
        </mxCell>
        <mxCell id="09VrfscucBev9E92s10k-61" value="" style="edgeStyle=none;curved=1;rounded=0;orthogonalLoop=1;jettySize=auto;html=1;fontSize=12;startSize=8;endSize=8;entryX=0;entryY=0.5;entryDx=0;entryDy=0;" parent="dNxyNK7c78bLwvsdeMH5-22" source="09VrfscucBev9E92s10k-59" target="09VrfscucBev9E92s10k-62" edge="1">
          <mxGeometry relative="1" as="geometry" />
        </mxCell>
        <mxCell id="09VrfscucBev9E92s10k-59" value="Pedir mas información en caso que el permiso este incompleta" style="rounded=1;whiteSpace=wrap;html=1;" parent="dNxyNK7c78bLwvsdeMH5-22" vertex="1">
          <mxGeometry x="950" y="156.88" width="120" height="60" as="geometry" />
        </mxCell>
        <mxCell id="09VrfscucBev9E92s10k-64" value="" style="edgeStyle=none;curved=0;rounded=0;orthogonalLoop=1;jettySize=auto;html=1;fontSize=12;startSize=8;endSize=8;exitX=1;exitY=0.5;exitDx=0;exitDy=0;" parent="dNxyNK7c78bLwvsdeMH5-22" source="09VrfscucBev9E92s10k-62" edge="1">
          <mxGeometry relative="1" as="geometry">
            <mxPoint x="1229.9984057971014" y="164.31898550724628" as="sourcePoint" />
            <mxPoint x="1331.81" y="160.68285714285713" as="targetPoint" />
            <Array as="points">
              <mxPoint x="1290" y="160" />
            </Array>
          </mxGeometry>
        </mxCell>
        <mxCell id="09VrfscucBev9E92s10k-65" value="Si los proporciono" style="edgeLabel;html=1;align=center;verticalAlign=middle;resizable=0;points=[];;fontSize=12;" parent="09VrfscucBev9E92s10k-64" connectable="0" vertex="1">
          <mxGeometry x="-0.3375" y="-2" relative="1" as="geometry">
            <mxPoint x="16" y="26" as="offset" />
          </mxGeometry>
        </mxCell>
        <mxCell id="QDIWvdAyVyvwIRi1RJry-77" style="edgeStyle=orthogonalEdgeStyle;rounded=0;orthogonalLoop=1;jettySize=auto;html=1;exitX=0.5;exitY=0;exitDx=0;exitDy=0;entryX=0.5;entryY=0;entryDx=0;entryDy=0;" parent="dNxyNK7c78bLwvsdeMH5-22" source="09VrfscucBev9E92s10k-62" target="09VrfscucBev9E92s10k-59" edge="1">
          <mxGeometry relative="1" as="geometry" />
        </mxCell>
        <mxCell id="QDIWvdAyVyvwIRi1RJry-78" value="si no proporciono los datos" style="edgeLabel;html=1;align=center;verticalAlign=middle;resizable=0;points=[];" parent="QDIWvdAyVyvwIRi1RJry-77" connectable="0" vertex="1">
          <mxGeometry x="0.1693" y="2" relative="1" as="geometry">
            <mxPoint x="23" as="offset" />
          </mxGeometry>
        </mxCell>
        <mxCell id="09VrfscucBev9E92s10k-62" value="Datos adicionales o requeridos" style="rhombus;whiteSpace=wrap;html=1;" parent="dNxyNK7c78bLwvsdeMH5-22" vertex="1">
          <mxGeometry x="1130" y="133.75" width="100" height="95" as="geometry" />
        </mxCell>
        <mxCell id="09VrfscucBev9E92s10k-63" style="edgeStyle=none;curved=1;rounded=0;orthogonalLoop=1;jettySize=auto;html=1;exitX=0;exitY=0.5;exitDx=0;exitDy=0;fontSize=12;startSize=8;endSize=8;" parent="dNxyNK7c78bLwvsdeMH5-22" source="09VrfscucBev9E92s10k-62" target="09VrfscucBev9E92s10k-62" edge="1">
          <mxGeometry relative="1" as="geometry" />
        </mxCell>
        <mxCell id="QDIWvdAyVyvwIRi1RJry-44" value="Aceptación de paz y salvo" style="whiteSpace=wrap;html=1;fontColor=#000000;rounded=0;" parent="dNxyNK7c78bLwvsdeMH5-22" vertex="1">
          <mxGeometry x="2690" y="156.25" width="120" height="60" as="geometry" />
        </mxCell>
        <mxCell id="QDIWvdAyVyvwIRi1RJry-46" value="Firma del documento enviado" style="whiteSpace=wrap;html=1;fontColor=#000000;rounded=0;" parent="dNxyNK7c78bLwvsdeMH5-22" vertex="1">
          <mxGeometry x="2860" y="156.25" width="120" height="60" as="geometry" />
        </mxCell>
        <mxCell id="QDIWvdAyVyvwIRi1RJry-43" value="" style="edgeStyle=none;curved=1;rounded=0;orthogonalLoop=1;jettySize=auto;html=1;fontSize=12;startSize=8;endSize=8;" parent="dNxyNK7c78bLwvsdeMH5-22" source="QDIWvdAyVyvwIRi1RJry-44" target="QDIWvdAyVyvwIRi1RJry-46" edge="1">
          <mxGeometry relative="1" as="geometry" />
        </mxCell>
        <mxCell id="QDIWvdAyVyvwIRi1RJry-48" value="Se debe notificar y se hace una constancia de cumplimiento de Paz y salvo" style="whiteSpace=wrap;html=1;fontColor=#000000;rounded=0;" parent="dNxyNK7c78bLwvsdeMH5-22" vertex="1">
          <mxGeometry x="3010" y="156.25" width="120" height="60" as="geometry" />
        </mxCell>
        <mxCell id="QDIWvdAyVyvwIRi1RJry-45" value="" style="edgeStyle=none;curved=1;rounded=0;orthogonalLoop=1;jettySize=auto;html=1;fontSize=12;startSize=8;endSize=8;" parent="dNxyNK7c78bLwvsdeMH5-22" source="QDIWvdAyVyvwIRi1RJry-46" target="QDIWvdAyVyvwIRi1RJry-48" edge="1">
          <mxGeometry relative="1" as="geometry" />
        </mxCell>
        <mxCell id="QDIWvdAyVyvwIRi1RJry-49" value="Fin" style="ellipse;whiteSpace=wrap;html=1;aspect=fixed;fillColor=#cdeb8b;strokeColor=#36393d;" parent="dNxyNK7c78bLwvsdeMH5-22" vertex="1">
          <mxGeometry x="3310" y="146.25" width="80" height="80" as="geometry" />
        </mxCell>
        <mxCell id="QDIWvdAyVyvwIRi1RJry-50" value="" style="edgeStyle=none;curved=1;rounded=0;orthogonalLoop=1;jettySize=auto;html=1;fontSize=12;startSize=8;endSize=8;" parent="dNxyNK7c78bLwvsdeMH5-22" source="QDIWvdAyVyvwIRi1RJry-51" target="QDIWvdAyVyvwIRi1RJry-49" edge="1">
          <mxGeometry relative="1" as="geometry" />
        </mxCell>
        <mxCell id="QDIWvdAyVyvwIRi1RJry-51" value="Reenviar el documento firmado al remitente" style="whiteSpace=wrap;html=1;fontColor=#000000;rounded=0;" parent="dNxyNK7c78bLwvsdeMH5-22" vertex="1">
          <mxGeometry x="3160" y="156.25" width="120" height="60" as="geometry" />
        </mxCell>
        <mxCell id="QDIWvdAyVyvwIRi1RJry-47" value="" style="edgeStyle=none;curved=1;rounded=0;orthogonalLoop=1;jettySize=auto;html=1;fontSize=12;startSize=8;endSize=8;" parent="dNxyNK7c78bLwvsdeMH5-22" source="QDIWvdAyVyvwIRi1RJry-48" target="QDIWvdAyVyvwIRi1RJry-51" edge="1">
          <mxGeometry relative="1" as="geometry" />
        </mxCell>
        <mxCell id="QDIWvdAyVyvwIRi1RJry-53" value="Un superior debe revisar el documento y debe aprobarlo" style="rounded=1;whiteSpace=wrap;html=1;" parent="dNxyNK7c78bLwvsdeMH5-22" vertex="1">
          <mxGeometry x="2060" y="155" width="120" height="60" as="geometry" />
        </mxCell>
        <mxCell id="QDIWvdAyVyvwIRi1RJry-55" value="Pedir mas información en caso que el Paz y salvo este incompleta" style="rounded=1;whiteSpace=wrap;html=1;" parent="dNxyNK7c78bLwvsdeMH5-22" vertex="1">
          <mxGeometry x="2220" y="155" width="120" height="60" as="geometry" />
        </mxCell>
        <mxCell id="QDIWvdAyVyvwIRi1RJry-52" style="edgeStyle=none;curved=1;rounded=0;orthogonalLoop=1;jettySize=auto;html=1;entryX=0;entryY=0.5;entryDx=0;entryDy=0;fontSize=12;startSize=8;endSize=8;" parent="dNxyNK7c78bLwvsdeMH5-22" source="QDIWvdAyVyvwIRi1RJry-53" target="QDIWvdAyVyvwIRi1RJry-55" edge="1">
          <mxGeometry relative="1" as="geometry" />
        </mxCell>
        <mxCell id="QDIWvdAyVyvwIRi1RJry-70" style="edgeStyle=orthogonalEdgeStyle;rounded=0;orthogonalLoop=1;jettySize=auto;html=1;exitX=0.5;exitY=0;exitDx=0;exitDy=0;entryX=0.5;entryY=0;entryDx=0;entryDy=0;" parent="dNxyNK7c78bLwvsdeMH5-22" source="QDIWvdAyVyvwIRi1RJry-58" target="QDIWvdAyVyvwIRi1RJry-55" edge="1">
          <mxGeometry relative="1" as="geometry">
            <mxPoint x="2435" y="80" as="targetPoint" />
          </mxGeometry>
        </mxCell>
        <mxCell id="QDIWvdAyVyvwIRi1RJry-76" value="si no proporciono los datos" style="edgeLabel;html=1;align=center;verticalAlign=middle;resizable=0;points=[];" parent="QDIWvdAyVyvwIRi1RJry-70" connectable="0" vertex="1">
          <mxGeometry x="0.0019" y="2" relative="1" as="geometry">
            <mxPoint as="offset" />
          </mxGeometry>
        </mxCell>
        <mxCell id="QDIWvdAyVyvwIRi1RJry-74" style="edgeStyle=orthogonalEdgeStyle;rounded=0;orthogonalLoop=1;jettySize=auto;html=1;" parent="dNxyNK7c78bLwvsdeMH5-22" source="QDIWvdAyVyvwIRi1RJry-58" target="QDIWvdAyVyvwIRi1RJry-44" edge="1">
          <mxGeometry relative="1" as="geometry" />
        </mxCell>
        <mxCell id="QDIWvdAyVyvwIRi1RJry-75" value="si proporciono los datos" style="edgeLabel;html=1;align=center;verticalAlign=middle;resizable=0;points=[];" parent="QDIWvdAyVyvwIRi1RJry-74" connectable="0" vertex="1">
          <mxGeometry x="-0.0463" y="-1" relative="1" as="geometry">
            <mxPoint as="offset" />
          </mxGeometry>
        </mxCell>
        <mxCell id="QDIWvdAyVyvwIRi1RJry-58" value="Datos adicionales o requeridos" style="rhombus;whiteSpace=wrap;html=1;" parent="dNxyNK7c78bLwvsdeMH5-22" vertex="1">
          <mxGeometry x="2380" y="140" width="110" height="92.5" as="geometry" />
        </mxCell>
        <mxCell id="QDIWvdAyVyvwIRi1RJry-54" value="" style="edgeStyle=none;curved=1;rounded=0;orthogonalLoop=1;jettySize=auto;html=1;fontSize=12;startSize=8;endSize=8;entryX=0;entryY=0.5;entryDx=0;entryDy=0;" parent="dNxyNK7c78bLwvsdeMH5-22" source="QDIWvdAyVyvwIRi1RJry-55" target="QDIWvdAyVyvwIRi1RJry-58" edge="1">
          <mxGeometry relative="1" as="geometry" />
        </mxCell>
        <mxCell id="QDIWvdAyVyvwIRi1RJry-59" style="edgeStyle=none;curved=1;rounded=0;orthogonalLoop=1;jettySize=auto;html=1;exitX=0;exitY=0.5;exitDx=0;exitDy=0;fontSize=12;startSize=8;endSize=8;" parent="dNxyNK7c78bLwvsdeMH5-22" source="QDIWvdAyVyvwIRi1RJry-58" target="QDIWvdAyVyvwIRi1RJry-58" edge="1">
          <mxGeometry relative="1" as="geometry" />
        </mxCell>
        <mxCell id="QDIWvdAyVyvwIRi1RJry-103" value="" style="edgeStyle=orthogonalEdgeStyle;rounded=0;orthogonalLoop=1;jettySize=auto;html=1;" parent="dNxyNK7c78bLwvsdeMH5-22" source="QDIWvdAyVyvwIRi1RJry-100" target="QDIWvdAyVyvwIRi1RJry-102" edge="1">
          <mxGeometry relative="1" as="geometry" />
        </mxCell>
        <mxCell id="QDIWvdAyVyvwIRi1RJry-100" value="Solicitud de documentos requeridos para el cargo" style="whiteSpace=wrap;html=1;" parent="dNxyNK7c78bLwvsdeMH5-22" vertex="1">
          <mxGeometry x="60" y="210" width="120" height="60" as="geometry" />
        </mxCell>
        <mxCell id="QDIWvdAyVyvwIRi1RJry-106" value="" style="edgeStyle=orthogonalEdgeStyle;rounded=0;orthogonalLoop=1;jettySize=auto;html=1;entryX=0;entryY=0.5;entryDx=0;entryDy=0;" parent="dNxyNK7c78bLwvsdeMH5-22" source="QDIWvdAyVyvwIRi1RJry-102" target="QDIWvdAyVyvwIRi1RJry-105" edge="1">
          <mxGeometry relative="1" as="geometry">
            <Array as="points">
              <mxPoint x="262" y="300" />
            </Array>
          </mxGeometry>
        </mxCell>
        <mxCell id="QDIWvdAyVyvwIRi1RJry-108" value="" style="edgeStyle=orthogonalEdgeStyle;rounded=0;orthogonalLoop=1;jettySize=auto;html=1;" parent="dNxyNK7c78bLwvsdeMH5-22" source="QDIWvdAyVyvwIRi1RJry-102" target="QDIWvdAyVyvwIRi1RJry-107" edge="1">
          <mxGeometry relative="1" as="geometry" />
        </mxCell>
        <mxCell id="QDIWvdAyVyvwIRi1RJry-102" value="Entrega documentos" style="rhombus;whiteSpace=wrap;html=1;" parent="dNxyNK7c78bLwvsdeMH5-22" vertex="1">
          <mxGeometry x="212" y="197.5" width="100" height="85" as="geometry" />
        </mxCell>
        <mxCell id="2gThl7QHYpkS3Ir1K88n-8" style="edgeStyle=orthogonalEdgeStyle;rounded=0;orthogonalLoop=1;jettySize=auto;html=1;entryX=0;entryY=0.5;entryDx=0;entryDy=0;" edge="1" parent="dNxyNK7c78bLwvsdeMH5-22" source="QDIWvdAyVyvwIRi1RJry-105" target="2gThl7QHYpkS3Ir1K88n-1">
          <mxGeometry relative="1" as="geometry">
            <mxPoint x="684.0000000000005" y="300.0000000000002" as="targetPoint" />
          </mxGeometry>
        </mxCell>
        <mxCell id="QDIWvdAyVyvwIRi1RJry-105" value="Empieza proceso de contratacion&amp;nbsp;" style="whiteSpace=wrap;html=1;" parent="dNxyNK7c78bLwvsdeMH5-22" vertex="1">
          <mxGeometry x="490" y="270" width="120" height="60" as="geometry" />
        </mxCell>
        <mxCell id="QDIWvdAyVyvwIRi1RJry-110" value="" style="edgeStyle=orthogonalEdgeStyle;rounded=0;orthogonalLoop=1;jettySize=auto;html=1;" parent="dNxyNK7c78bLwvsdeMH5-22" source="QDIWvdAyVyvwIRi1RJry-107" target="QDIWvdAyVyvwIRi1RJry-109" edge="1">
          <mxGeometry relative="1" as="geometry" />
        </mxCell>
        <mxCell id="QDIWvdAyVyvwIRi1RJry-107" value="Plazo designado para entregar documentos" style="whiteSpace=wrap;html=1;" parent="dNxyNK7c78bLwvsdeMH5-22" vertex="1">
          <mxGeometry x="356" y="156.88" width="120" height="60" as="geometry" />
        </mxCell>
        <mxCell id="QDIWvdAyVyvwIRi1RJry-116" value="" style="edgeStyle=orthogonalEdgeStyle;rounded=0;orthogonalLoop=1;jettySize=auto;html=1;" parent="dNxyNK7c78bLwvsdeMH5-22" source="QDIWvdAyVyvwIRi1RJry-109" target="QDIWvdAyVyvwIRi1RJry-105" edge="1">
          <mxGeometry relative="1" as="geometry" />
        </mxCell>
        <mxCell id="QDIWvdAyVyvwIRi1RJry-117" value="Si" style="edgeLabel;html=1;align=center;verticalAlign=middle;resizable=0;points=[];" parent="QDIWvdAyVyvwIRi1RJry-116" connectable="0" vertex="1">
          <mxGeometry x="-0.0019" relative="1" as="geometry">
            <mxPoint as="offset" />
          </mxGeometry>
        </mxCell>
        <mxCell id="QDIWvdAyVyvwIRi1RJry-109" value="Entrega de documentos" style="rhombus;whiteSpace=wrap;html=1;" parent="dNxyNK7c78bLwvsdeMH5-22" vertex="1">
          <mxGeometry x="500" y="145" width="100" height="83.75" as="geometry" />
        </mxCell>
        <mxCell id="QDIWvdAyVyvwIRi1RJry-120" style="edgeStyle=orthogonalEdgeStyle;rounded=0;orthogonalLoop=1;jettySize=auto;html=1;" parent="dNxyNK7c78bLwvsdeMH5-22" source="QDIWvdAyVyvwIRi1RJry-118" edge="1">
          <mxGeometry relative="1" as="geometry">
            <mxPoint x="3352.222222222222" y="260" as="targetPoint" />
          </mxGeometry>
        </mxCell>
        <mxCell id="QDIWvdAyVyvwIRi1RJry-118" value="Se le notifica al empleado de su estado en la empresa" style="whiteSpace=wrap;html=1;" parent="dNxyNK7c78bLwvsdeMH5-22" vertex="1">
          <mxGeometry x="1700" y="270" width="120" height="60" as="geometry" />
        </mxCell>
        <mxCell id="09VrfscucBev9E92s10k-11" value="Verificación de documentos entregados" style="whiteSpace=wrap;html=1;fontColor=#000000;rounded=0;" parent="dNxyNK7c78bLwvsdeMH5-22" vertex="1">
          <mxGeometry x="920" y="38" width="120" height="60" as="geometry" />
        </mxCell>
        <mxCell id="QDIWvdAyVyvwIRi1RJry-66" style="edgeStyle=orthogonalEdgeStyle;rounded=0;orthogonalLoop=1;jettySize=auto;html=1;" parent="dNxyNK7c78bLwvsdeMH5-22" source="09VrfscucBev9E92s10k-11" target="09VrfscucBev9E92s10k-13" edge="1">
          <mxGeometry relative="1" as="geometry" />
        </mxCell>
        <mxCell id="2gThl7QHYpkS3Ir1K88n-9" value="" style="edgeStyle=orthogonalEdgeStyle;rounded=0;orthogonalLoop=1;jettySize=auto;html=1;" edge="1" parent="dNxyNK7c78bLwvsdeMH5-22" source="2gThl7QHYpkS3Ir1K88n-1" target="2gThl7QHYpkS3Ir1K88n-2">
          <mxGeometry relative="1" as="geometry" />
        </mxCell>
        <mxCell id="2gThl7QHYpkS3Ir1K88n-1" value="Se evaluan los riesgos" style="whiteSpace=wrap;html=1;" vertex="1" parent="dNxyNK7c78bLwvsdeMH5-22">
          <mxGeometry x="690" y="270" width="120" height="60" as="geometry" />
        </mxCell>
        <mxCell id="2gThl7QHYpkS3Ir1K88n-11" value="" style="edgeStyle=orthogonalEdgeStyle;rounded=0;orthogonalLoop=1;jettySize=auto;html=1;" edge="1" parent="dNxyNK7c78bLwvsdeMH5-22" source="2gThl7QHYpkS3Ir1K88n-2" target="2gThl7QHYpkS3Ir1K88n-7">
          <mxGeometry relative="1" as="geometry" />
        </mxCell>
        <mxCell id="2gThl7QHYpkS3Ir1K88n-2" value="Se evaluan las aptitudes" style="whiteSpace=wrap;html=1;" vertex="1" parent="dNxyNK7c78bLwvsdeMH5-22">
          <mxGeometry x="872" y="270" width="120" height="60" as="geometry" />
        </mxCell>
        <mxCell id="2gThl7QHYpkS3Ir1K88n-13" value="" style="edgeStyle=orthogonalEdgeStyle;rounded=0;orthogonalLoop=1;jettySize=auto;html=1;" edge="1" parent="dNxyNK7c78bLwvsdeMH5-22" source="2gThl7QHYpkS3Ir1K88n-7" target="2gThl7QHYpkS3Ir1K88n-12">
          <mxGeometry relative="1" as="geometry" />
        </mxCell>
        <mxCell id="2gThl7QHYpkS3Ir1K88n-7" value="Revision de datos" style="whiteSpace=wrap;html=1;" vertex="1" parent="dNxyNK7c78bLwvsdeMH5-22">
          <mxGeometry x="1052" y="270" width="120" height="60" as="geometry" />
        </mxCell>
        <mxCell id="2gThl7QHYpkS3Ir1K88n-15" value="" style="edgeStyle=orthogonalEdgeStyle;rounded=0;orthogonalLoop=1;jettySize=auto;html=1;" edge="1" parent="dNxyNK7c78bLwvsdeMH5-22" source="2gThl7QHYpkS3Ir1K88n-12" target="2gThl7QHYpkS3Ir1K88n-14">
          <mxGeometry relative="1" as="geometry" />
        </mxCell>
        <mxCell id="2gThl7QHYpkS3Ir1K88n-12" value="Validacion de datos" style="whiteSpace=wrap;html=1;" vertex="1" parent="dNxyNK7c78bLwvsdeMH5-22">
          <mxGeometry x="1260" y="270" width="120" height="60" as="geometry" />
        </mxCell>
        <mxCell id="2gThl7QHYpkS3Ir1K88n-16" value="" style="edgeStyle=orthogonalEdgeStyle;rounded=0;orthogonalLoop=1;jettySize=auto;html=1;" edge="1" parent="dNxyNK7c78bLwvsdeMH5-22" source="2gThl7QHYpkS3Ir1K88n-14" target="QDIWvdAyVyvwIRi1RJry-118">
          <mxGeometry relative="1" as="geometry" />
        </mxCell>
        <mxCell id="2gThl7QHYpkS3Ir1K88n-14" value="Revision de documentacion" style="whiteSpace=wrap;html=1;" vertex="1" parent="dNxyNK7c78bLwvsdeMH5-22">
          <mxGeometry x="1476" y="270" width="120" height="60" as="geometry" />
        </mxCell>
        <mxCell id="QDIWvdAyVyvwIRi1RJry-63" value="" style="edgeStyle=orthogonalEdgeStyle;rounded=0;orthogonalLoop=1;jettySize=auto;html=1;" parent="1" source="QDIWvdAyVyvwIRi1RJry-1" target="QDIWvdAyVyvwIRi1RJry-32" edge="1">
          <mxGeometry relative="1" as="geometry" />
        </mxCell>
        <mxCell id="QDIWvdAyVyvwIRi1RJry-79" style="edgeStyle=orthogonalEdgeStyle;rounded=0;orthogonalLoop=1;jettySize=auto;html=1;entryX=1.008;entryY=0.649;entryDx=0;entryDy=0;entryPerimeter=0;" parent="1" source="QDIWvdAyVyvwIRi1RJry-36" target="09VrfscucBev9E92s10k-1" edge="1">
          <mxGeometry relative="1" as="geometry">
            <Array as="points">
              <mxPoint x="1400" y="700" />
              <mxPoint x="660" y="700" />
              <mxPoint x="660" y="184" />
            </Array>
          </mxGeometry>
        </mxCell>
        <mxCell id="QDIWvdAyVyvwIRi1RJry-69" style="edgeStyle=orthogonalEdgeStyle;rounded=0;orthogonalLoop=1;jettySize=auto;html=1;entryX=0;entryY=0.75;entryDx=0;entryDy=0;" parent="1" source="09VrfscucBev9E92s10k-15" target="09VrfscucBev9E92s10k-1" edge="1">
          <mxGeometry relative="1" as="geometry">
            <Array as="points">
              <mxPoint x="160" y="129" />
            </Array>
          </mxGeometry>
        </mxCell>
        <mxCell id="QDIWvdAyVyvwIRi1RJry-101" value="" style="edgeStyle=orthogonalEdgeStyle;rounded=0;orthogonalLoop=1;jettySize=auto;html=1;" parent="1" source="QDIWvdAyVyvwIRi1RJry-97" target="QDIWvdAyVyvwIRi1RJry-100" edge="1">
          <mxGeometry relative="1" as="geometry" />
        </mxCell>
        <mxCell id="QDIWvdAyVyvwIRi1RJry-112" value="" style="edgeStyle=orthogonalEdgeStyle;rounded=0;orthogonalLoop=1;jettySize=auto;html=1;" parent="1" source="QDIWvdAyVyvwIRi1RJry-109" target="QDIWvdAyVyvwIRi1RJry-94" edge="1">
          <mxGeometry relative="1" as="geometry">
            <mxPoint x="-9.999999999999773" y="783.125" as="targetPoint" />
          </mxGeometry>
        </mxCell>
        <mxCell id="QDIWvdAyVyvwIRi1RJry-113" value="No" style="edgeLabel;html=1;align=center;verticalAlign=middle;resizable=0;points=[];" parent="QDIWvdAyVyvwIRi1RJry-112" connectable="0" vertex="1">
          <mxGeometry x="-0.2259" y="-1" relative="1" as="geometry">
            <mxPoint as="offset" />
          </mxGeometry>
        </mxCell>
        <mxCell id="09VrfscucBev9E92s10k-12" value="" style="edgeStyle=none;curved=1;rounded=0;orthogonalLoop=1;jettySize=auto;html=1;fontSize=12;startSize=8;endSize=8;" parent="1" source="09VrfscucBev9E92s10k-9" target="09VrfscucBev9E92s10k-11" edge="1">
          <mxGeometry relative="1" as="geometry" />
        </mxCell>
      </root>
    </mxGraphModel>
  </diagram>
</mxfile>
